<?xml version="1.0" encoding="UTF-8" standalone="no"?>
<svg
   xmlns:dc="http://purl.org/dc/elements/1.1/"
   xmlns:cc="http://creativecommons.org/ns#"
   xmlns:rdf="http://www.w3.org/1999/02/22-rdf-syntax-ns#"
   xmlns:svg="http://www.w3.org/2000/svg"
   xmlns="http://www.w3.org/2000/svg"
   width="210mm"
   height="297mm"
   viewBox="0 0 210 297"
   version="1.1"
   id="svg8">
  <defs
     id="defs2" />
  <metadata
     id="metadata5">
    <rdf:RDF>
      <cc:Work
         rdf:about="">
        <dc:format>image/svg+xml</dc:format>
        <dc:type
           rdf:resource="http://purl.org/dc/dcmitype/StillImage" />
        <dc:title></dc:title>
      </cc:Work>
    </rdf:RDF>
  </metadata>
  <g
     id="layer1">
    <g
       id="g119"
       transform="matrix(2.0032196,0,0,2.0032196,15.126912,28.115205)">
      <g
         data-name="Dental Clinic"
         id="g98"
         transform="matrix(1.4151056,0,0,1.4151056,-2.339686,8.6040064)">
        <path
           d="M 57,60 V 42.9 A 5.009,5.009 0 0 0 61,38 v -6 a 1,1 0 0 0 -0.1,-0.447 l -6,-12 A 1,1 0 0 0 54,19 H 50 V 3 A 1,1 0 0 0 49,2 H 15 a 1,1 0 0 0 -1,1 v 16 h -4 a 1,1 0 0 0 -0.895,0.553 l -6,12 A 1,1 0 0 0 3,32 v 6 a 5.009,5.009 0 0 0 4,4.9 V 60 H 2 v 2 h 60 v -2 z m 2,-22 a 3,3 0 0 1 -6,0 v -1 h 6 z m -8,0 a 3,3 0 0 1 -6,0 v -1 h 6 z m -8,0 a 3,3 0 0 1 -6,0 v -1 h 6 z m -8,0 a 3,3 0 0 1 -6,0 v -1 h 6 z m -8,0 a 3,3 0 0 1 -6,0 v -1 h 6 z m -8,0 a 3,3 0 0 1 -6,0 v -1 h 6 z M 5,33 h 54 v 2 H 5 Z M 16,4 H 48 V 28 H 16 Z M 10.618,21 H 14 v 8 a 1,1 0 0 0 1,1 h 34 a 1,1 0 0 0 1,-1 v -8 h 3.382 l 5,10 H 5.618 Z M 5,38 v -1 h 6 v 1 A 3,3 0 0 1 5,38 Z M 15,60 V 50 h 8 v 10 z m 10,0 V 49 A 1,1 0 0 0 24,48 H 14 a 1,1 0 0 0 -1,1 V 60 H 9 V 42.9 a 4.994,4.994 0 0 0 3,-1.93 4.954,4.954 0 0 0 8,0 4.954,4.954 0 0 0 8,0 4.954,4.954 0 0 0 8,0 4.954,4.954 0 0 0 8,0 4.954,4.954 0 0 0 8,0 4.994,4.994 0 0 0 3,1.93 V 60 Z"
           id="path90" />
        <path
           d="m 37.04,6.089 a 5.952,5.952 0 0 0 -4.5,1.025 0.937,0.937 0 0 1 -1.075,0 5.955,5.955 0 0 0 -4.5,-1.025 6,6 0 0 0 -4.269,8.7 16.112,16.112 0 0 1 1.893,5.961 l 0.237,2.449 A 3.1,3.1 0 0 0 31,22.9 V 20 a 1,1 0 0 1 2,0 v 2.9 a 3.1,3.1 0 0 0 6.179,0.3 l 0.237,-2.45 a 16.123,16.123 0 0 1 1.893,-5.961 5.995,5.995 0 0 0 -4.269,-8.7 z m 2.5,7.766 a 18.111,18.111 0 0 0 -2.115,6.7 l -0.238,2.449 A 1.1,1.1 0 0 1 35,22.9 V 20 a 3,3 0 0 0 -6,0 v 2.9 a 1.1,1.1 0 0 1 -2.188,0.106 l -0.238,-2.449 a 18.111,18.111 0 0 0 -2.115,-6.7 3.989,3.989 0 0 1 5.841,-5.117 2.924,2.924 0 0 0 3.405,0 3.954,3.954 0 0 1 3,-0.679 3.995,3.995 0 0 1 2.837,5.794 z"
           id="path92" />
        <path
           d="m 29.413,9.489 -0.822,1.823 a 8.792,8.792 0 0 0 6.819,0 L 34.59,9.489 a 6.933,6.933 0 0 1 -5.177,0 z"
           id="path94" />
        <path
           d="M 49,48 H 31 a 1,1 0 0 0 -1,1 v 8 a 1,1 0 0 0 1,1 h 18 a 1,1 0 0 0 1,-1 v -8 a 1,1 0 0 0 -1,-1 z m -1,8 H 32 v -6 h 16 z"
           id="path96" />
      </g>
    </g>
  </g>
</svg>
