<?xml version="1.0" encoding="UTF-8" standalone="no"?>
<svg
   xmlns:dc="http://purl.org/dc/elements/1.1/"
   xmlns:cc="http://creativecommons.org/ns#"
   xmlns:rdf="http://www.w3.org/1999/02/22-rdf-syntax-ns#"
   xmlns:svg="http://www.w3.org/2000/svg"
   xmlns="http://www.w3.org/2000/svg"
   xmlns:sodipodi="http://sodipodi.sourceforge.net/DTD/sodipodi-0.dtd"
   xmlns:inkscape="http://www.inkscape.org/namespaces/inkscape"
   width="210mm"
   height="297mm"
   viewBox="0 0 210 297"
   version="1.1"
   id="svg892"
   inkscape:export-filename="/Users/heesoo/Documents/SCHOOL/ART3001/new_art3001/art3001/blog/img/forwardarrow.png"
   inkscape:export-xdpi="96.715218"
   inkscape:export-ydpi="96.715218"
   inkscape:version="1.0.2 (e86c8708, 2021-01-15)"
   sodipodi:docname="arrow.svg">
  <defs
     id="defs886" />
  <sodipodi:namedview
     id="base"
     pagecolor="#ffffff"
     bordercolor="#666666"
     borderopacity="1.0"
     inkscape:pageopacity="0.0"
     inkscape:pageshadow="2"
     inkscape:zoom="0.35"
     inkscape:cx="348.57143"
     inkscape:cy="560"
     inkscape:document-units="mm"
     inkscape:current-layer="layer1"
     inkscape:document-rotation="0"
     showgrid="false"
     inkscape:window-width="1252"
     inkscape:window-height="814"
     inkscape:window-x="0"
     inkscape:window-y="23"
     inkscape:window-maximized="0" />
  <metadata
     id="metadata889">
    <rdf:RDF>
      <cc:Work
         rdf:about="">
        <dc:format>image/svg+xml</dc:format>
        <dc:type
           rdf:resource="http://purl.org/dc/dcmitype/StillImage" />
        <dc:title></dc:title>
      </cc:Work>
    </rdf:RDF>
  </metadata>
  <g
     inkscape:label="Layer 1"
     inkscape:groupmode="layer"
     id="layer1">
    <path
       style="fill:#41403e;stroke:#41403e;stroke-width:2.12116"
       id="path894"
       d="m 178.27285,149.17307 c -1.41935,0.0948 -2.84023,0.17136 -4.25805,0.28459 -12.24052,0.97755 -7.52548,0.79931 -21.53529,1.63469 -14.88686,0.88771 -29.7909,1.34289 -44.69775,1.80397 -22.30512,0.69128 -44.620699,0.35364 -66.931639,0.35832 -1.48301,0.003 -2.96601,0.004 -4.44902,0.004 0,0 -9.64447,6.61992 -9.64447,6.61992 v 0 c 1.62977,-0.10564 3.25955,-0.21128 4.88933,-0.31692 23.06317,-1.21621 46.169456,-1.38705 69.257309,-1.95353 18.59863,-0.39817 12.09905,-0.22394 30.21136,-0.74606 10.97661,-0.31642 22.03171,-0.93695 33.01945,-0.67532 1.14491,0.0273 2.28159,0.18973 3.42239,0.2846 0,0 10.71638,-7.29913 10.71638,-7.29913 z" />
    <path
       style="fill:#41403e;stroke:#41403e;stroke-width:2.12116"
       id="path898"
       d="m 164.4377,155.97263 c -3.47791,5.1621 -7.50921,9.97402 -11.49061,14.79835 -3.12072,3.90584 -6.20868,7.85479 -8.92165,12.02343 -1.16077,1.67699 -2.52598,3.28453 -3.2248,5.19134 -0.14483,0.48598 -0.0868,0.25838 -0.18147,0.6811 0,0 12.01717,-5.40214 12.01717,-5.40214 v 0 c 0.0989,-0.3137 0.0409,-0.14138 0.17897,-0.51552 0.75975,-1.70243 1.93531,-3.21534 2.90999,-4.80901 2.61664,-4.05764 5.56013,-7.92174 8.55466,-11.73991 4.05982,-5.10649 8.24917,-10.12665 12.17419,-15.32434 0,0 -12.01645,5.0967 -12.01645,5.0967 z" />
    <path
       style="fill:#41403e;stroke:#41403e;stroke-width:2.12116"
       id="path960"
       d="m 178.21463,148.32768 c -4.86388,-0.89765 -8.81804,-4.21044 -12.34572,-7.27231 -4.80211,-4.5117 -8.30913,-9.99175 -11.10474,-15.75774 -0.85515,-1.68915 -1.42743,-3.43975 -1.47368,-5.308 0.0923,-0.82574 -0.35956,-1.57043 -0.62752,-2.33507 0,0 -11.65352,6.06039 -11.65352,6.06039 v 0 c 0.27865,0.64102 0.58719,1.25388 0.54987,1.96552 0.20761,1.99411 1.06879,3.81175 2.17001,5.51849 3.38694,5.59319 6.98425,11.15606 11.66524,15.89264 3.48248,3.33062 7.34443,6.55425 12.00619,8.3488 0,0 10.81387,-7.11272 10.81387,-7.11272 z" />
  </g>
</svg>
