<svg xmlns="http://www.w3.org/2000/svg" xmlns:xlink="http://www.w3.org/1999/xlink" version="1.1" x="0px" y="0px" viewBox="0 0 110 137.5" enable-background="new 0 0 110 110" xml:space="preserve"><path d="M50.702,67.021c-0.331,0.332-0.331,0.87,0.001,1.202c0.166,0.166,0.383,0.249,0.601,0.249s0.436-0.083,0.602-0.249  l4.06-4.06h8.938l12.76-12.766l0.021-0.547l0.56-0.03l4.03-4.031c2.796-2.793,2.796-7.343,0-10.143  c-1.354-1.353-3.155-2.099-5.07-2.099c-1.914,0-3.716,0.745-5.073,2.1l-10.573,10.58l0.024,0.446L61.15,47.63l-6.391,6.39v8.942  L50.702,67.021z M64.198,62.463h-6.534l2.459-2.459l6.513,0.021L64.198,62.463z M66.809,50.912l-0.021-6.514l4.395-4.396  l0.021,6.515L66.809,50.912z M67.964,52.162l6.511,0.02L68.33,58.33l-6.513-0.021L67.964,52.162z M77.501,49.158l-1.458,0.079  l-0.047,1.249l-6.338-0.02l4.143-4.143l6.512,0.021L77.501,49.158z M81.813,44.65l-6.318-0.021l6.117-6.118  C82.934,40.331,83.008,42.772,81.813,44.65z M77.203,36.248c1.172,0,2.279,0.382,3.208,1.06l-7.515,7.516l-0.021-6.517l0.457-0.457  C74.367,36.817,75.742,36.248,77.203,36.248z M61.779,49.404l1.608,0.166l-0.093-1.678l1.799-1.8l0.021,6.513l-4.504,4.505  l-0.021-6.518L61.779,49.404z M56.459,54.724l2.438-2.438l0.021,6.518l-2.459,2.459V54.724z M25.622,54.638  c0-0.469,0.38-0.85,0.85-0.85h25.261c0.47,0,0.85,0.381,0.85,0.85c0,0.47-0.38,0.851-0.85,0.851H26.472  C26.002,55.488,25.622,55.107,25.622,54.638z M25.622,58.392c0-0.469,0.38-0.85,0.85-0.85h25.261c0.47,0,0.85,0.381,0.85,0.85  c0,0.47-0.38,0.851-0.85,0.851H26.472C26.002,59.242,25.622,58.861,25.622,58.392z M25.622,62.151c0-0.47,0.38-0.851,0.85-0.851  h25.261c0.47,0,0.85,0.381,0.85,0.851c0,0.469-0.38,0.85-0.85,0.85H26.472C26.002,63.001,25.622,62.62,25.622,62.151z   M25.622,65.905c0-0.469,0.38-0.85,0.85-0.85h20.366c0.47,0,0.85,0.381,0.85,0.85c0,0.47-0.38,0.851-0.85,0.851H26.472  C26.002,66.756,25.622,66.375,25.622,65.905z M98.914,81.126V26.218c0-2.388-1.937-4.324-4.324-4.324H15.409  c-2.388,0-4.323,1.937-4.323,4.324v54.908H5c0,4.285,3.476,6.98,7.759,6.98h84.48c4.284,0,7.761-2.695,7.761-6.98H98.914z   M60.912,83.782H49.088c-1.467,0-2.656-1.189-2.656-2.656h17.135C63.566,82.593,62.379,83.782,60.912,83.782z M93.51,75.976H16.49  V27.045h77.02V75.976z"/><text x="0" y="125" fill="#000000" font-size="5px" font-weight="bold" font-family="'Helvetica Neue', Helvetica, Arial-Unicode, Arial, Sans-serif">Created by dilayorganci</text><text x="0" y="130" fill="#000000" font-size="5px" font-weight="bold" font-family="'Helvetica Neue', Helvetica, Arial-Unicode, Arial, Sans-serif">from the Noun Project</text></svg>