<svg xmlns="http://www.w3.org/2000/svg" xmlns:xlink="http://www.w3.org/1999/xlink" version="1.1" x="0px" y="0px" viewBox="0 0 100 125" style="enable-background:new 0 0 100 100;" xml:space="preserve"><g><path d="M82.6,30c0-1.5-1.2-2.6-2.6-2.6H20c-1.5,0-2.6,1.2-2.6,2.6v36.5h65.2V30z M79.3,61.3H20.7V31.1h58.7V61.3z"/><path d="M9.4,72.6h81.3c1.6,0,2.9-1.3,2.9-2.9V68H59.5v0.6c0,0.9-1.1,1.7-2.4,1.7H42.9c-1.3,0-2.4-0.8-2.4-1.7V68H6.4v1.7   C6.4,71.3,7.8,72.6,9.4,72.6z"/></g><text x="0" y="115" fill="#000000" font-size="5px" font-weight="bold" font-family="'Helvetica Neue', Helvetica, Arial-Unicode, Arial, Sans-serif">Created by mikicon</text><text x="0" y="120" fill="#000000" font-size="5px" font-weight="bold" font-family="'Helvetica Neue', Helvetica, Arial-Unicode, Arial, Sans-serif">from the Noun Project</text></svg>