<?xml version="1.0" encoding="UTF-8" standalone="no"?>
<svg
   xmlns:dc="http://purl.org/dc/elements/1.1/"
   xmlns:cc="http://creativecommons.org/ns#"
   xmlns:rdf="http://www.w3.org/1999/02/22-rdf-syntax-ns#"
   xmlns:svg="http://www.w3.org/2000/svg"
   xmlns="http://www.w3.org/2000/svg"
   xmlns:sodipodi="http://sodipodi.sourceforge.net/DTD/sodipodi-0.dtd"
   xmlns:inkscape="http://www.inkscape.org/namespaces/inkscape"
   width="210mm"
   height="297mm"
   viewBox="0 0 210 297"
   version="1.1"
   id="svg93"
   inkscape:version="1.0.2 (e86c8708, 2021-01-15)"
   sodipodi:docname="projects.svg">
  <defs
     id="defs87" />
  <sodipodi:namedview
     id="base"
     pagecolor="#ffffff"
     bordercolor="#666666"
     borderopacity="1.0"
     inkscape:pageopacity="0.0"
     inkscape:pageshadow="2"
     inkscape:zoom="0.35"
     inkscape:cx="400"
     inkscape:cy="560"
     inkscape:document-units="mm"
     inkscape:current-layer="g130"
     inkscape:document-rotation="0"
     showgrid="false"
     inkscape:window-width="1204"
     inkscape:window-height="812"
     inkscape:window-x="395"
     inkscape:window-y="23"
     inkscape:window-maximized="0" />
  <metadata
     id="metadata90">
    <rdf:RDF>
      <cc:Work
         rdf:about="">
        <dc:format>image/svg+xml</dc:format>
        <dc:type
           rdf:resource="http://purl.org/dc/dcmitype/StillImage" />
        <dc:title></dc:title>
      </cc:Work>
    </rdf:RDF>
  </metadata>
  <g
     inkscape:label="Layer 1"
     inkscape:groupmode="layer"
     id="layer1">
    <g
       id="g130"
       transform="matrix(1.7521889,0,0,1.7521889,48.31676,26.335301)">
      <path
         d="m -6.1321185,72.147558 c 0,1.629712 -1.308112,2.944609 -2.9310393,2.944609 v 0 c -1.6229282,0 -2.9391812,-1.314897 -2.9391812,-2.944609 V 49.74546 c 0,-1.616142 1.314896,-2.939181 2.9391812,-2.939181 v 0 c 1.6229273,0 2.9310393,1.323039 2.9310393,2.939181 z"
         id="path95"
         style="stroke-width:1.35696" />
      <path
         d="m 0.97565168,75.960622 c 0,2.169784 -1.31489637,3.925693 -2.93103898,3.925693 v 0 c -1.6229274,0 -2.9391812,-1.755909 -2.9391812,-3.925693 V 45.945964 c 0,-2.176568 1.3148969,-3.937905 2.9391812,-3.937905 v 0 c 1.61614261,0 2.93103898,1.762694 2.93103898,3.937905 z"
         id="path97"
         style="stroke-width:1.35696" />
      <path
         d="m 7.9789358,79.618994 c 0,2.700356 -1.314896,4.883709 -2.9323963,4.883709 v 0 c -1.6229263,0 -2.9378231,-2.181996 -2.9378231,-4.883709 V 42.274023 c 0,-2.700356 1.3148968,-4.883708 2.9378231,-4.883708 v 0 c 1.6161423,0 2.9323963,2.181996 2.9323963,4.883708 z"
         id="path99"
         style="stroke-width:1.35696" />
      <path
         d="m 72.52558,72.147558 c 0,1.629712 1.316254,2.944609 2.932397,2.944609 v 0 c 1.614785,0 2.937824,-1.314897 2.937824,-2.944609 V 49.74546 c 0,-1.616142 -1.323039,-2.939181 -2.937824,-2.939181 v 0 c -1.616143,0 -2.932397,1.323039 -2.932397,2.939181 z"
         id="path101"
         style="stroke-width:1.35696" />
      <path
         d="m 65.411025,75.960622 c 0,2.169784 1.316254,3.925693 2.931039,3.925693 v 0 c 1.622927,0 2.939182,-1.755909 2.939182,-3.925693 V 45.945964 c 0,-2.176568 -1.316255,-3.937905 -2.939182,-3.937905 v 0 c -1.614785,0 -2.931039,1.762694 -2.931039,3.937905 z"
         id="path103"
         style="stroke-width:1.35696" />
      <path
         d="m 58.40774,79.618994 c 0,2.700356 1.316255,4.883709 2.939182,4.883709 v 0 c 1.622927,0 2.924254,-2.181996 2.924254,-4.883709 V 42.274023 c 0,-2.700356 -1.301327,-4.883708 -2.924254,-4.883708 v 0 c -1.622927,0 -2.939182,2.181996 -2.939182,4.883708 z"
         id="path105"
         style="stroke-width:1.35696" />
      <rect
         x="8.8881016"
         y="56.944149"
         width="48.45578"
         height="7.7374015"
         id="rect107"
         style="stroke-width:1.35696" />
      <text
         x="-13.221118"
         y="99.572891"
         fill="#000000"
         font-size="22.0914px"
         font-weight="bold"
         font-family="'Helvetica Neue', Helvetica, Arial-Unicode, Arial, Sans-serif"
         id="text109"
         transform="scale(0.90368033,1.106586)"
         style="stroke-width:4.41828">Exercises</text>
      <text
         x="0"
         y="120"
         fill="#000000"
         font-size="5px"
         font-weight="bold"
         font-family="'Helvetica Neue', Helvetica, Arial-Unicode, Arial, Sans-serif"
         id="text111"
         style="word-spacing:0px" />
    </g>
  </g>
</svg>
