<?xml version="1.0" encoding="UTF-8" standalone="no"?>
<svg
   xmlns:dc="http://purl.org/dc/elements/1.1/"
   xmlns:cc="http://creativecommons.org/ns#"
   xmlns:rdf="http://www.w3.org/1999/02/22-rdf-syntax-ns#"
   xmlns:svg="http://www.w3.org/2000/svg"
   xmlns="http://www.w3.org/2000/svg"
   width="210mm"
   height="297mm"
   viewBox="0 0 210 297"
   version="1.1"
   id="svg8">
  <defs
     id="defs2" />
  <metadata
     id="metadata5">
    <rdf:RDF>
      <cc:Work
         rdf:about="">
        <dc:format>image/svg+xml</dc:format>
        <dc:type
           rdf:resource="http://purl.org/dc/dcmitype/StillImage" />
        <dc:title></dc:title>
      </cc:Work>
    </rdf:RDF>
  </metadata>
  <g
     id="layer1">
    <g
       id="g30"
       transform="matrix(15.374765,0,0,15.374765,-30.013775,20.167705)">
      <g
         transform="translate(0,-280.06666)"
         id="g12">
        <path
           d="m 6.9040948,281.00152 c -1.1299572,0 -2.051877,0.92193 -2.0518727,2.05187 2.2e-6,1.03503 0.7741869,1.8928 1.772543,2.03006 v 3.81623 h -0.019096 a 0.26668813,0.26668813 0 0 0 -0.2667816,0.26623 v 6.35257 a 0.54687325,0.54687325 0 0 0 0.5472027,0.54666 h 0.037644 a 0.54687325,0.54687325 0 0 0 0.5466571,-0.54666 v -6.35257 a 0.26668813,0.26668813 0 0 0 -0.2667819,-0.26623 h -0.019639 v -3.81623 c 0.9983875,-0.13749 1.7736318,-0.99522 1.773634,-2.03006 4.2e-6,-1.12994 -0.9235521,-2.05187 -2.0535096,-2.05187 z m 0,0.55867 c 0.8280342,0 1.4948533,0.66517 1.4948499,1.4932 -1.6e-6,0.82804 -0.6668194,1.49268 -1.4948499,1.49268 -0.8280309,0 -1.4926662,-0.66464 -1.4926679,-1.49268 -3e-6,-0.82803 0.6646337,-1.4932 1.4926679,-1.4932 z m 4.8252112,-0.53776 -1.522438,1.75944 a 0.37713902,0.37713902 0 0 0 -0.04272,0.43307 l 0.974308,1.71501 a 0.86044304,0.86044304 0 0 1 0.112301,0.42503 v 3.54469 h -0.03437 c -0.147148,-5e-5 -0.266532,0.11908 -0.266782,0.26623 v 6.35256 c 1.17e-4,0.30208 0.245127,0.54684 0.547202,0.54666 h 0.03765 c 0.301863,-1.1e-4 0.546541,-0.2448 0.546657,-0.54666 v -6.35256 c -2.5e-4,-0.14715 -0.119633,-0.26628 -0.266782,-0.26623 h -0.005 v -3.69527 a 0.83879926,0.83879926 0 0 0 -0.114807,-0.42358 l -0.94792,-1.62021 a 0.44641485,0.44641485 0 0 1 0.004,-0.4575 l 1.00922,-1.65846 a 0.01892283,0.01892283 0 0 0 -0.03047,-0.0222 z"
           style="opacity:1;mix-blend-mode:normal;fill:#000000;fill-opacity:1;fill-rule:evenodd;stroke:none;stroke-width:0;stroke-linecap:butt;stroke-linejoin:miter;stroke-miterlimit:4;stroke-dasharray:none;stroke-opacity:1"
           id="path10" />
      </g>
    </g>
  </g>
</svg>
