<?xml version="1.0" encoding="UTF-8" standalone="no"?>
<svg
   xmlns:dc="http://purl.org/dc/elements/1.1/"
   xmlns:cc="http://creativecommons.org/ns#"
   xmlns:rdf="http://www.w3.org/1999/02/22-rdf-syntax-ns#"
   xmlns:svg="http://www.w3.org/2000/svg"
   xmlns="http://www.w3.org/2000/svg"
   xmlns:sodipodi="http://sodipodi.sourceforge.net/DTD/sodipodi-0.dtd"
   xmlns:inkscape="http://www.inkscape.org/namespaces/inkscape"
   width="210mm"
   height="297mm"
   viewBox="0 0 210 297"
   version="1.1"
   id="svg300"
   inkscape:version="1.0.2 (e86c8708, 2021-01-15)"
   sodipodi:docname="projects2.svg">
  <defs
     id="defs294" />
  <sodipodi:namedview
     id="base"
     pagecolor="#ffffff"
     bordercolor="#666666"
     borderopacity="1.0"
     inkscape:pageopacity="0.0"
     inkscape:pageshadow="2"
     inkscape:zoom="0.35"
     inkscape:cx="400"
     inkscape:cy="560"
     inkscape:document-units="mm"
     inkscape:current-layer="g333"
     inkscape:document-rotation="0"
     showgrid="false"
     inkscape:window-width="1347"
     inkscape:window-height="813"
     inkscape:window-x="0"
     inkscape:window-y="23"
     inkscape:window-maximized="0" />
  <metadata
     id="metadata297">
    <rdf:RDF>
      <cc:Work
         rdf:about="">
        <dc:format>image/svg+xml</dc:format>
        <dc:type
           rdf:resource="http://purl.org/dc/dcmitype/StillImage" />
        <dc:title />
      </cc:Work>
    </rdf:RDF>
  </metadata>
  <g
     inkscape:label="Layer 1"
     inkscape:groupmode="layer"
     id="layer1">
    <g
       id="g333"
       transform="matrix(1.69348,0,0,1.69348,22.551749,25.47295)">
      <path
         d="m 24.566421,87.467763 -1.919287,1.919288 a 1.8361323,1.8361323 0 1 0 2.596683,2.596683 l 1.919287,-1.919288 a 1.8361323,1.8361323 0 1 0 -2.596683,-2.596683 z"
         id="path304"
         style="stroke-width:1.12899"
         inkscape:export-xdpi="95.900002"
         inkscape:export-ydpi="95.900002" />
      <path
         d="m 32.130672,79.790613 -3.838575,3.838575 a 1.8361323,1.8361323 0 1 0 2.596683,2.596683 l 3.838576,-3.838575 a 1.8361325,1.8361325 0 1 0 -2.596684,-2.596683 z"
         id="path306"
         style="stroke-width:1.12899"
         inkscape:export-xdpi="95.900002"
         inkscape:export-ydpi="95.900002" />
      <path
         d="m 37.888535,74.145649 -1.919287,1.919288 a 1.8361323,1.8361323 0 1 0 2.596683,2.596683 l 1.919288,-1.919288 a 1.8361325,1.8361325 0 1 0 -2.596684,-2.596683 z"
         id="path308"
         style="stroke-width:1.12899"
         inkscape:export-xdpi="95.900002"
         inkscape:export-ydpi="95.900002" />
      <path
         d="m 102.91852,94.919115 -7.677155,-7.67715 a 1.8361323,1.8361323 0 0 0 -2.596683,2.596683 l 6.435258,6.435258 -12.193121,12.193124 -3.499877,-3.49988 6.09656,-6.09656 a 1.8361325,1.8361325 0 0 0 -2.596683,-2.596684 l -6.096561,6.096564 -3.386978,-3.386981 3.048281,-3.048281 a 1.8361325,1.8361325 0 1 0 -2.596684,-2.596683 l -3.04828,3.048281 -3.386978,-3.386979 4.967568,-4.62887 a 1.8361323,1.8361323 0 0 0 -2.596683,-2.596683 l -4.854669,4.854669 -3.386978,-3.386978 3.04828,-3.048281 a 1.8361323,1.8361323 0 1 0 -2.596683,-2.596683 l -2.935381,3.04828 -3.386978,-3.386978 6.09656,-6.09656 a 1.8361325,1.8361325 0 0 0 -2.596683,-2.596684 l -6.096561,6.096561 -4.51597,-4.515971 12.30602,-12.193121 18.402581,18.402581 a 1.8361325,1.8361325 0 0 0 2.596684,-2.596683 L 67.355245,59.355845 88.128711,38.695278 v 0 l 3.612777,-3.725676 a 9.144841,9.144841 0 0 0 2.596683,-5.080467 l 0.790295,-5.757863 a 4.2901723,4.2901723 0 0 0 0,-0.790295 l 0.564496,-0.338698 2.935381,-2.935381 a 2.8224818,2.8224818 0 0 0 -3.951474,-3.951474 l -2.935381,2.935381 -0.225799,0.451597 h -1.128993 l -5.757862,0.790295 a 9.144841,9.144841 0 0 0 -5.080468,2.596683 l -3.725676,3.725676 v 0 l -6.773956,6.773956 a 1.8361323,1.8361323 0 1 0 2.596683,2.596683 l 5.532065,-5.532064 3.499877,3.386978 3.612777,3.612777 -20.773466,20.660567 v 0 L 23.21163,98.644791 15.986077,91.419238 41.614211,65.791103 v 0 L 67.355245,40.050069 a 1.8361323,1.8361323 0 1 0 -2.596683,-2.596683 l -24.499142,24.499142 -4.290172,-4.290173 6.09656,-6.09656 a 1.8361323,1.8361323 0 0 0 -2.596683,-2.596683 l -6.096561,6.09656 -3.386978,-3.386978 3.048281,-3.04828 a 1.8361325,1.8361325 0 1 0 -2.596684,-2.596683 l -3.04828,3.04828 -3.386978,-3.386978 4.967568,-4.74177 A 1.8361323,1.8361323 0 0 0 26.37281,38.35658 l -4.854669,4.854669 -3.386978,-3.386978 3.04828,-3.048281 A 1.8361323,1.8361323 0 1 0 18.58276,34.179307 l -2.935381,3.04828 -3.386978,-3.386978 6.09656,-6.09656 A 1.8361325,1.8361325 0 0 0 15.760278,25.147365 L 9.663717,31.243926 6.2767388,27.856948 18.469861,15.663827 49.968757,47.049824 a 1.8361325,1.8361325 0 0 0 2.596684,-2.596683 L 19.824652,11.712352 a 1.8063883,1.8063883 0 0 0 -2.596683,0 L 2.4381636,26.615056 a 1.8063883,1.8063883 0 0 0 0,2.596683 L 37.775636,64.549211 12.147501,90.177346 v 0 l -6.3223593,6.322359 a 7.6771505,7.6771505 0 0 0 0,10.838325 l 1.4676906,1.4677 a 7.6771505,7.6771505 0 0 0 5.4191657,2.25798 l 2.032187,-0.2258 A 1.8072715,1.8072715 0 0 0 13.84099,107.33803 4.0643738,4.0643738 0 0 1 9.8895155,106.32194 L 8.421825,104.85425 a 4.0643738,4.0643738 0 0 1 0,-5.644963 l 5.080468,-5.080467 7.112654,7.11265 -3.612777,3.61278 a 1.8361323,1.8361323 0 1 0 2.596683,2.59668 l 4.854669,-4.96756 v 0 L 50.081657,76.855232 85.532028,112.3056 a 1.8063883,1.8063883 0 0 0 2.596683,0 L 102.91852,97.515798 a 1.8063883,1.8063883 0 0 0 0,-2.596683 z M 82.03215,25.260265 a 5.419165,5.419165 0 0 1 3.16118,-1.58059 l 5.757863,-0.790295 a 0.56449636,0.56449636 0 0 1 0.451597,0.112899 0.56449636,0.56449636 0 0 1 0.112899,0.451597 l -0.790295,5.870762 a 5.419165,5.419165 0 0 1 -1.58059,3.048281 l -2.370884,2.370884 -3.612777,-3.499877 -3.499877,-3.499877 z"
         id="path310"
         style="stroke-width:1.12899"
         inkscape:export-xdpi="95.900002"
         inkscape:export-ydpi="95.900002" />
      <path
         d="m 87.112618,81.597001 a 1.8063883,1.8063883 0 0 0 0,2.596683 l 1.46769,1.58059 a 1.8361323,1.8361323 0 1 0 2.596683,-2.596683 L 89.709301,81.7099 a 1.8063883,1.8063883 0 0 0 -2.596683,-0.112899 z"
         id="path312"
         style="stroke-width:1.12899"
         inkscape:export-xdpi="95.900002"
         inkscape:export-ydpi="95.900002" />
      <text
         x="0"
         y="120"
         fill="#000000"
         font-size="5px"
         font-weight="bold"
         font-family="'Helvetica Neue', Helvetica, Arial-Unicode, Arial, Sans-serif"
         id="text316" />
    </g>
  </g>
</svg>
