<?xml version="1.0" encoding="UTF-8" standalone="no"?>
<svg
   xmlns:dc="http://purl.org/dc/elements/1.1/"
   xmlns:cc="http://creativecommons.org/ns#"
   xmlns:rdf="http://www.w3.org/1999/02/22-rdf-syntax-ns#"
   xmlns:svg="http://www.w3.org/2000/svg"
   xmlns="http://www.w3.org/2000/svg"
   xmlns:sodipodi="http://sodipodi.sourceforge.net/DTD/sodipodi-0.dtd"
   xmlns:inkscape="http://www.inkscape.org/namespaces/inkscape"
   width="210mm"
   height="297mm"
   viewBox="0 0 210 297"
   version="1.1"
   id="svg300"
   inkscape:version="1.0.2 (e86c8708, 2021-01-15)"
   sodipodi:docname="projects2.svg">
  <defs
     id="defs294" />
  <sodipodi:namedview
     id="base"
     pagecolor="#ffffff"
     bordercolor="#666666"
     borderopacity="1.0"
     inkscape:pageopacity="0.0"
     inkscape:pageshadow="2"
     inkscape:zoom="0.35"
     inkscape:cx="400"
     inkscape:cy="560"
     inkscape:document-units="mm"
     inkscape:current-layer="g333"
     inkscape:document-rotation="0"
     showgrid="false"
     inkscape:window-width="1252"
     inkscape:window-height="813"
     inkscape:window-x="0"
     inkscape:window-y="23"
     inkscape:window-maximized="0" />
  <metadata
     id="metadata297">
    <rdf:RDF>
      <cc:Work
         rdf:about="">
        <dc:format>image/svg+xml</dc:format>
        <dc:type
           rdf:resource="http://purl.org/dc/dcmitype/StillImage" />
        <dc:title></dc:title>
      </cc:Work>
    </rdf:RDF>
  </metadata>
  <g
     inkscape:label="Layer 1"
     inkscape:groupmode="layer"
     id="layer1">
    <g
       id="g333"
       transform="matrix(1.69348,0,0,1.69348,22.551749,25.47295)">
      <path
         d="m 21.975271,78.749459 -1.7,1.7 a 1.6263456,1.6263456 0 1 0 2.3,2.3 l 1.7,-1.7 a 1.6263456,1.6263456 0 1 0 -2.3,-2.3 z"
         id="path304" />
      <path
         d="m 28.675271,71.949459 -3.4,3.4 a 1.6263456,1.6263456 0 1 0 2.3,2.3 l 3.4,-3.4 a 1.6263456,1.6263456 0 1 0 -2.3,-2.3 z"
         id="path306" />
      <path
         d="m 33.775271,66.949459 -1.7,1.7 a 1.6263456,1.6263456 0 1 0 2.3,2.3 l 1.7,-1.7 a 1.6263456,1.6263456 0 1 0 -2.3,-2.3 z"
         id="path308" />
      <path
         d="m 91.375271,85.349459 -6.8,-6.8 a 1.6263456,1.6263456 0 0 0 -2.3,2.3 l 5.7,5.7 -10.8,10.8 -3.1,-3.1 5.4,-5.4 a 1.6263456,1.6263456 0 0 0 -2.3,-2.3 l -5.4,5.4 -3,-3 2.7,-2.7 a 1.6263456,1.6263456 0 1 0 -2.3,-2.3 l -2.7,2.7 -3,-3 4.4,-4.1 a 1.6263456,1.6263456 0 0 0 -2.3,-2.3 l -4.3,4.3 -3,-3 2.7,-2.7 a 1.6263456,1.6263456 0 1 0 -2.3,-2.3 l -2.6,2.7 -3,-3 5.4,-5.4 a 1.6263456,1.6263456 0 0 0 -2.3,-2.3 l -5.4,5.4 -4,-4 10.9,-10.8 16.3,16.3 a 1.6263456,1.6263456 0 0 0 2.3,-2.3 l -16.4,-16.3 18.4,-18.3 v 0 l 3.2,-3.3 a 8.1,8.1 0 0 0 2.3,-4.5 l 0.7,-5.1 a 3.8,3.8 0 0 0 0,-0.7 l 0.5,-0.3 2.6,-2.6 a 2.5,2.5 0 0 0 -3.5,-3.5 l -2.6,2.6 -0.2,0.4 h -1 l -5.1,0.7 a 8.1,8.1 0 0 0 -4.5,2.3 l -3.3,3.3 v 0 l -6,6 a 1.6263456,1.6263456 0 1 0 2.3,2.3 l 4.9,-4.9 3.1,3 3.2,3.2 -18.4,18.3 v 0 l -35.7,35.9 -6.4,-6.4 22.7,-22.7 v 0 l 22.8,-22.8 a 1.6263456,1.6263456 0 1 0 -2.3,-2.3 l -21.7,21.7 -3.8,-3.8 5.4,-5.4 a 1.6263456,1.6263456 0 0 0 -2.3,-2.3 l -5.4,5.4 -3,-3 2.7,-2.7 a 1.6263456,1.6263456 0 1 0 -2.3,-2.3 l -2.7,2.7 -3,-3 4.4,-4.2 a 1.6263456,1.6263456 0 0 0 -2.3,-2.3 l -4.3,4.3 -3,-3 2.7,-2.7 a 1.6263456,1.6263456 0 1 0 -2.3,-2.3 l -2.6,2.7 -3,-3 5.4,-5.4 a 1.6263456,1.6263456 0 0 0 -2.3,-2.3 l -5.4000004,5.4 -3,-3 10.8000004,-10.8 27.9,27.8 a 1.6263456,1.6263456 0 0 0 2.3,-2.3 l -29,-29 a 1.6,1.6 0 0 0 -2.3,0 l -13.1000004,13.2 a 1.6,1.6 0 0 0 0,2.3 l 31.3000004,31.3 -22.7,22.7 v 0 l -5.6000004,5.6 a 6.8,6.8 0 0 0 0,9.6 l 1.3,1.3 a 6.8,6.8 0 0 0 4.8000004,2 l 1.8,-0.2 a 1.6007811,1.6007811 0 0 0 -0.8,-3.1 3.6,3.6 0 0 1 -3.5000004,-0.9 l -1.3,-1.3 a 3.6,3.6 0 0 1 0,-5 l 4.5000004,-4.5 6.3,6.3 -3.2,3.2 a 1.6263456,1.6263456 0 1 0 2.3,2.3 l 4.3,-4.4 v 0 l 22.7,-22.7 31.4,31.400001 a 1.6,1.6 0 0 0 2.3,0 l 13.1,-13.100001 a 1.6,1.6 0 0 0 0,-2.3 z m -18.5,-61.7 a 4.8,4.8 0 0 1 2.8,-1.4 l 5.1,-0.7 a 0.5,0.5 0 0 1 0.4,0.1 0.5,0.5 0 0 1 0.1,0.4 l -0.7,5.2 a 4.8,4.8 0 0 1 -1.4,2.7 l -2.1,2.1 -3.2,-3.1 -3.1,-3.1 z"
         id="path310" />
      <path
         d="m 77.375271,73.549459 a 1.6,1.6 0 0 0 0,2.3 l 1.3,1.4 a 1.6263456,1.6263456 0 1 0 2.3,-2.3 l -1.3,-1.3 a 1.6,1.6 0 0 0 -2.3,-0.1 z"
         id="path312" />
      <text
         x="2.5611753"
         y="117.23179"
         fill="#000000"
         font-size="24.0685px"
         font-weight="bold"
         font-family="'Helvetica Neue', Helvetica, Arial-Unicode, Arial, Sans-serif"
         id="text314"
         transform="scale(0.92757167,1.0780838)"
         style="stroke-width:4.81371">Projects</text>
      <text
         x="0"
         y="120"
         fill="#000000"
         font-size="5px"
         font-weight="bold"
         font-family="'Helvetica Neue', Helvetica, Arial-Unicode, Arial, Sans-serif"
         id="text316" />
    </g>
  </g>
</svg>
