<?xml version="1.0" encoding="UTF-8" standalone="no"?>
<svg
   xmlns:dc="http://purl.org/dc/elements/1.1/"
   xmlns:cc="http://creativecommons.org/ns#"
   xmlns:rdf="http://www.w3.org/1999/02/22-rdf-syntax-ns#"
   xmlns:svg="http://www.w3.org/2000/svg"
   xmlns="http://www.w3.org/2000/svg"
   xmlns:sodipodi="http://sodipodi.sourceforge.net/DTD/sodipodi-0.dtd"
   xmlns:inkscape="http://www.inkscape.org/namespaces/inkscape"
   width="210mm"
   height="297mm"
   viewBox="0 0 210 297"
   version="1.1"
   id="svg449"
   inkscape:version="1.0.2 (e86c8708, 2021-01-15)"
   sodipodi:docname="project2.svg">
  <defs
     id="defs443" />
  <sodipodi:namedview
     id="base"
     pagecolor="#ffffff"
     bordercolor="#666666"
     borderopacity="1.0"
     inkscape:pageopacity="0.0"
     inkscape:pageshadow="2"
     inkscape:zoom="0.35"
     inkscape:cx="400"
     inkscape:cy="560"
     inkscape:document-units="mm"
     inkscape:current-layer="g510"
     inkscape:document-rotation="0"
     showgrid="false"
     inkscape:window-width="1252"
     inkscape:window-height="813"
     inkscape:window-x="0"
     inkscape:window-y="23"
     inkscape:window-maximized="0" />
  <metadata
     id="metadata446">
    <rdf:RDF>
      <cc:Work
         rdf:about="">
        <dc:format>image/svg+xml</dc:format>
        <dc:type
           rdf:resource="http://purl.org/dc/dcmitype/StillImage" />
        <dc:title></dc:title>
      </cc:Work>
    </rdf:RDF>
  </metadata>
  <g
     inkscape:label="Layer 1"
     inkscape:groupmode="layer"
     id="layer1">
    <g
       id="g510"
       transform="matrix(1.9818377,0,0,1.9818377,28.734054,25.134163)">
      <g
         id="g479"
         transform="matrix(1.3866706,0,0,1.3866706,-9.9435958,4.1853802)">
        <path
           d="m 58.707,10.293 -8,-8 A 1,1 0 0 0 50,2 H 18 a 5.006,5.006 0 0 0 -5,5 v 12 h 2 V 7 a 3,3 0 0 1 3,-3 h 31 v 5 a 3,3 0 0 0 3,3 h 5 v 45 a 3,3 0 0 1 -3,3 H 18 A 3,3 0 0 1 15,57 V 45 h -2 v 12 a 5.006,5.006 0 0 0 5,5 h 36 a 5.006,5.006 0 0 0 5,-5 V 11 A 1,1 0 0 0 58.707,10.293 Z M 51,9 V 5.414 L 55.586,10 H 52 A 1,1 0 0 1 51,9 Z"
           id="path451" />
        <rect
           x="19"
           y="8"
           width="2"
           height="2"
           id="rect453" />
        <rect
           x="23"
           y="8"
           width="6"
           height="2"
           id="rect455" />
        <rect
           x="19"
           y="12"
           width="10"
           height="2"
           id="rect457" />
        <path
           d="m 35,43 a 3,3 0 0 0 -6,0 2.972,2.972 0 0 0 0.224,1.126 l -4.783,4.259 A 2.961,2.961 0 0 0 23,48 a 3,3 0 1 0 3,3 2.972,2.972 0 0 0 -0.224,-1.126 l 4.783,-4.259 a 2.925,2.925 0 0 0 3.433,-0.389 l 6.056,3.3 A 2.925,2.925 0 0 0 40,49 3,3 0 0 0 46,49 2.969,2.969 0 0 0 45.306,47.1 L 48.4,41.939 A 2.964,2.964 0 0 0 49,42 3,3 0 1 0 46,39 2.969,2.969 0 0 0 46.694,40.9 L 43.6,46.061 a 2.957,2.957 0 0 0 -2.592,0.713 l -6.056,-3.3 A 2.925,2.925 0 0 0 35,43 Z m -12,9 a 1,1 0 1 1 1,-1 1,1 0 0 1 -1,1 z m 9,-8 a 1,1 0 1 1 1,-1 1,1 0 0 1 -1,1 z m 17,-6 a 1,1 0 1 1 -1,1 1,1 0 0 1 1,-1 z m -6,10 a 1,1 0 1 1 -1,1 1,1 0 0 1 1,-1 z"
           id="path459" />
        <rect
           x="41"
           y="20"
           width="12"
           height="2"
           id="rect461" />
        <rect
           x="23"
           y="20"
           width="16"
           height="2"
           id="rect463" />
        <rect
           x="41"
           y="24"
           width="12"
           height="2"
           id="rect465" />
        <rect
           x="23"
           y="24"
           width="16"
           height="2"
           id="rect467" />
        <rect
           x="41"
           y="28"
           width="12"
           height="2"
           id="rect469" />
        <rect
           x="23"
           y="28"
           width="16"
           height="2"
           id="rect471" />
        <rect
           x="41"
           y="32"
           width="12"
           height="2"
           id="rect473" />
        <rect
           x="23"
           y="32"
           width="16"
           height="2"
           id="rect475" />
        <path
           d="M 19.549,26.914 A 2,2 0 0 0 21,25 V 23 A 2,2 0 0 0 19,21 H 7 a 2,2 0 0 0 -2,2 v 2 a 2,2 0 0 0 1.451,1.914 L 10,31.351 v 1.3 L 6.451,37.086 A 2,2 0 0 0 5,39 v 2 a 2,2 0 0 0 2,2 h 12 a 2,2 0 0 0 2,-2 V 39 A 2,2 0 0 0 19.549,37.086 L 16,32.649 v -1.3 z M 7,23 h 12 v 2 H 7 Z m 0,18 v -2 h 12 v 2 z M 14.438,33.9 16.92,37 H 9.08 l 2.481,-3.1 A 2,2 0 0 0 12,32.649 v -1.3 A 2,2 0 0 0 11.562,30.1 L 9.08,27 h 7.84 l -2.481,3.1 A 2,2 0 0 0 14,31.351 v 1.3 a 2,2 0 0 0 0.438,1.249 z"
           id="path477" />
      </g>
      <text
         x="0.74938607"
         y="98.335419"
         fill="#000000"
         font-size="22.6471px"
         font-weight="bold"
         font-family="'Helvetica Neue', Helvetica, Arial-Unicode, Arial, Sans-serif"
         id="text481"
         transform="scale(0.83794553,1.193395)"
         style="stroke-width:4.5294">Projects</text>
    </g>
  </g>
</svg>
